<?xml version="1.0" encoding="utf-8"?>
<!-- Generator: Adobe Illustrator 15.1.0, SVG Export Plug-In . SVG Version: 6.00 Build 0)  -->
<!DOCTYPE svg PUBLIC "-//W3C//DTD SVG 1.1//EN" "http://www.w3.org/Graphics/SVG/1.1/DTD/svg11.dtd">
<svg version="1.1" id="Слой_1" xmlns="http://www.w3.org/2000/svg" xmlns:xlink="http://www.w3.org/1999/xlink" x="0px" y="0px"
	 width="468px" height="411px" viewBox="0 0 468 411" enable-background="new 0 0 468 411" xml:space="preserve">
<g transform="translate(0.000000,411.000000) scale(0.100000,-0.100000)">
	<path fill="#50505A" d="M26.001,4078.999C2.002,4050,0,4042.001,0,3941c0-93.999,2.998-112.002,20-133.999
		c11.001-14.004,27.998-28.003,37.998-31.001c9.004-3.003,123.003-22.002,252.002-41.001c128.999-20,237.998-38.999,242.002-42.998
		c13.999-15,145.996-406.001,471.997-1404.004C1335,1337.002,1360,1257.002,1360,1192.002c0-42.002-7.998-96.006-20-136.006
		c-22.998-73.994-97.998-190.996-162.002-252.998L1135,762.002l-95-4.004c-78.999-3.994-105-8.994-155-32.998
		c-76.001-35.996-142.998-102.998-181.001-180C677.998,490.996,675,475,675,385c0-87.998,2.998-107.002,27.002-157.002
		C860-110,1352.998-49.004,1420,317.002c11.001,62.998,2.998,147.998-18.999,205.996c-6.001,16.006-11.001,30-11.001,32.998
		c0,2.002,398.999,4.004,886.001,4.004c839.995,0,886.001-0.996,878.999-17.002c-4.004-10-14.004-47.002-22.002-80.996
		c-38.994-157.002,40-332.998,184.004-409.004c198.994-105.996,437.002-27.998,530.996,175c22.998,49.004,27.002,70,27.002,152.002
		c0,77.998-4.004,104.004-22.998,145c-52.998,115-126.006,182.998-232.998,215.996c-57.002,18.008-105,19.004-826.006,19.004h-765
		l60,65C2160,904.004,2253.999,1035,2325,1155l52.998,90l859.004,74.004c472.002,40,873.994,76.992,893.994,81.992
		s43.008,17.002,52.002,27.002C4204.003,1450.996,4680,3091,4680,3140c0,47.998-30.996,87.998-72.998,95
		c-17.998,2.998-849.004,61.001-1847.002,130c-997.998,67.998-1838.999,127.998-1868.999,132.002L837.002,3505L770,3690
		C663.999,3982.998,642.998,4028.999,606.001,4046C572.998,4060,183.999,4110,101.001,4110C57.998,4110,47.998,4106,26.001,4078.999
		z M1285,3267.001L1435,3255l57.998-252.998c33.003-139.004,58.003-254.004,56.001-255c-1.997-1.001-107.998-1.001-233.999,0.996
		l-231.001,3.003l-82.998,256.997C955,3148.999,915,3271,912.002,3278.999C907.002,3293.999,952.998,3292.001,1285,3267.001z
		 M1970,3220c156.001-12.002,285-22.002,286.001-22.998c2.998-3.003,53.999-431.001,53.999-450
		c0-18.003-12.002-18.003-272.002-12.002c-150,3.999-273.999,7.998-275,10c-3.999,2.998-112.998,468.999-112.998,482.998
		C1650,3242.998,1633.999,3243.999,1970,3220z M2760.996,3165c118.008-7.998,243.008-17.002,277.002-21.001l64.004-6.001
		L3095,2962.001c-2.998-98.003-7.998-192.002-10.996-209.004l-5-32.998l-227.002,1.001c-125,1.001-252.002,3.999-282.002,6.997
		l-55,7.002l-20.996,180c-12.002,98.999-25,198.999-28.008,222.002L2460,3180h44.004C2527.002,3180,2642.998,3172.998,2760.996,3165
		z M3620,3103.999c135-8.999,245.996-16.997,247.002-17.998c2.002-2.002-67.002-378.999-69.004-381.001
		c-2.002-1.001-118.994,0-260,2.998l-257.998,5l5,51.001c2.998,28.003,7.998,122.002,10.996,208.003l6.006,157.998l37.002-5
		C3359.004,3122.001,3485,3112.998,3620,3103.999z M4282.998,3058.999C4375,3052.001,4450,3043.999,4450,3040
		c0-10-97.998-341.001-102.002-346.001c-2.002-1.997-80.996,0-173.994,3.999l-170,7.002l22.998,130
		c42.998,237.998,42.002,235,65.996,235C4105,3070,4190,3065,4282.998,3058.999z M1596.001,2537.998
		c3.999-3.999,32.998-117.998,63.999-251.997l57.002-245.005l-71.001-5c-38.999-2.998-128.003-6.992-197.002-10l-126.001-5
		L1300,2092.998c-12.998,40-52.002,159.004-86.001,265l-62.998,194.004l218.999-4.004
		C1490,2547.002,1592.002,2542.002,1596.001,2537.998z M2337.002,2526.001c3.999-3.999,55.996-456.001,52.002-460
		C2382.998,2060,1920,2045.996,1920,2052.002c0,1.997-25,110.996-55,241.997c-30,130-55,240-55,243.003
		C1810,2542.002,2331.001,2531.001,2337.002,2526.001z M3069.004,2513.999c1.992-1.997,0-96.997-4.004-212.998l-7.002-208.999
		l-112.002-6.001c-60.996-3.003-165-7.002-230.996-8.003L2595,2075l-20.996,175c-11.006,97.002-24.004,197.998-28.008,226.001
		l-5.996,50l262.002-3.999C2947.002,2520,3067.002,2516.001,3069.004,2513.999z M3755,2498.999c2.998-3.999-9.004-91.997-27.002-195
		L3694.004,2115l-212.002-8.999c-117.002-3.999-215-6.001-219.004-3.003c-2.998,3.003-2.002,96.001,2.002,207.002l7.998,202.002
		l237.002-4.004C3640.996,2506.001,3750.996,2502.002,3755,2498.999z M4284.003,2488.999c5-5-89.004-348.999-97.002-355
		c-7.002-5-287.002-12.998-287.002-7.998c0,11.001,60.996,347.998,65.996,361.997c3.008,11.001,37.002,13.003,158.008,10
		C4209.003,2496.001,4280.996,2492.002,4284.003,2488.999z M4127.001,1917.998c-2.002-7.002-24.004-80-47.002-162.998
		c-24.004-82.002-45.996-152.998-50-157.002c-7.002-8.994-219.004-32.002-225.996-25.996c-2.002,2.998,10,77.998,25.996,167.998
		c17.002,90.996,30,167.998,30,172.002c0,7.002,64.004,12.002,204.004,15.996C4115,1930,4130.996,1927.002,4127.001,1917.998z
		 M3625,1735c-17.002-95.996-34.004-177.002-35.996-179.004c-3.008-3.994-323.008-35.996-353.008-35.996c-5.996,0,0,200,10,317.002
		l6.006,62.002l110.996,3.994c62.002,1.006,152.998,4.004,202.998,5l90,2.002L3625,1735z M3044.004,1822.998
		c-2.002-37.998-7.002-125-10-195c-6.006-122.002-7.002-127.998-28.008-127.998c-10.996-0.996-90.996-7.002-175.996-15
		c-85-7.002-157.002-12.002-159.004-10C2665,1480.996,2620,1864.004,2625,1869.004c4.004,2.998,182.998,12.998,377.002,18.994
		l47.002,2.002L3044.004,1822.998z M2420,1852.998c0-5,10.996-95.996,25-202.998c12.998-107.002,22.998-195,22.002-195.996
		c-10-7.002-392.002-33.008-397.002-27.002c-3.999,3.994-26.001,93.994-50,197.998c-23.999,105-45,197.998-47.998,207.002
		c-4.004,15,6.997,17.998,98.999,20.996C2297.998,1860,2420,1860,2420,1852.998z M1813.999,1622.998
		c27.002-117.002,48.003-215,45-217.002c-7.998-7.998-313.999-33.994-320-26.992c-6.997,5.996-148.999,430-148.999,442.998
		c0,7.002,190,15,320,13.994l55-0.996L1813.999,1622.998z M2116.001,1202.998c-3.999-8.994-33.003-52.998-63.999-95.996
		C1937.998,947.998,1820,832.002,1726.001,785c-45-22.998-62.002-25-178.003-25c-70,0-127.998,2.002-127.998,4.004
		c0,1.992,17.002,32.998,38.999,67.998c50,82.002,91.001,195.996,98.003,275c2.998,35,5.996,62.998,6.997,63.994
		c2.002,2.002,483.999,47.002,520,48.008C2116.001,1220,2121.001,1217.002,2116.001,1202.998z M1112.998,545.996
		c43.003-16.992,94.004-76.992,106.001-122.998C1242.998,332.002,1183.999,235,1090,210c-100-27.002-207.002,50.996-217.998,159.004
		C860,497.002,993.999,595.996,1112.998,545.996z M3580,537.998c110-55.996,132.002-187.998,45.996-273.994
		c-76.992-77.002-172.998-79.004-246.992-5c-88.008,86.992-66.006,225.996,42.998,280
		C3477.002,565.996,3524.004,565.996,3580,537.998z"/>
</g>
</svg>
